<?xml version="1.0" encoding="utf-8"?>
<!-- Generator: Adobe Illustrator 19.0.0, SVG Export Plug-In . SVG Version: 6.00 Build 0)  -->
<svg version="1.1" id="Layer_1" xmlns="http://www.w3.org/2000/svg" xmlns:xlink="http://www.w3.org/1999/xlink" x="0px" y="0px"
	 viewBox="-280.5 386.3 15 28.5" style="enable-background:new -280.5 386.3 15 28.5;" xml:space="preserve">
<g transform="translate(-570 -80)">
	<g>
		<path d="M293,478.5v-1.7c0-0.1-0.1-0.3-0.1-0.4l-1-1c-0.2-0.2-0.5-0.2-0.7,0s-0.2,0.5,0,0.7l0.9,0.9v1.8c0,0.2,0.1,0.3,0.3,0.4
			l2.4,1.4l0.1-1.1L293,478.5z"/>
		<path d="M292,481.8c-0.2,0-0.3,0.1-0.4,0.2l-0.9,1.4l-0.9,0.4c-0.2,0.1-0.3,0.4-0.2,0.7c0.1,0.2,0.3,0.3,0.4,0.3s0.2,0,0.2-0.1
			l1-0.5c0.1,0,0.1-0.1,0.2-0.2l0.9-1.3h2.1l0.1-1H292V481.8z"/>
		<path d="M291.2,487.1c-0.1,0.1-0.2,0.2-0.2,0.4v2.3l-1.1,1.1c-0.2,0.2-0.2,0.5,0,0.7c0.1,0.1,0.2,0.1,0.4,0.1s0.3,0,0.4-0.1
			l1.3-1.3c0.1-0.1,0.1-0.2,0.1-0.4v-2.2l1-0.7c0-0.5,0.1-1,0.2-1.4L291.2,487.1z"/>
		<path d="M301.7,479.2c0.2-0.1,0.3-0.3,0.3-0.4V477l0.9-0.9c0.2-0.2,0.2-0.5,0-0.7s-0.5-0.2-0.7,0l-1,1c-0.1,0.1-0.1,0.2-0.1,0.4
			v1.7l-1.8,1l0.1,1.1L301.7,479.2z"/>
		<path d="M301.7,482.8l0.9,1.3c0,0.1,0.1,0.1,0.2,0.2l1,0.5c0.1,0,0.1,0.1,0.2,0.1c0.2,0,0.4-0.1,0.4-0.3c0.1-0.2,0-0.5-0.2-0.7
			l-0.9-0.4l-0.9-1.4c-0.1-0.1-0.2-0.2-0.4-0.2h-2.5l0.1,1h2.1V482.8z"/>
		<path d="M302,487.8v2.2c0,0.1,0.1,0.3,0.1,0.4l1.3,1.3c0.1,0.1,0.2,0.1,0.4,0.1s0.3,0,0.4-0.1c0.2-0.2,0.2-0.5,0-0.7l-1.1-1.1
			v-2.3c0-0.2-0.1-0.3-0.2-0.4l-2.1-1.5c0.1,0.4,0.2,0.9,0.2,1.4L302,487.8z"/>
		<path d="M295.8,479.7l-0.6,4.7c-0.7,0.6-1.2,1.6-1.2,3.4c0,3,1.3,7,3,7s3-4,3-7c0-1.8-0.5-2.8-1.2-3.4l-0.6-4.7
			c-0.4,0.1-0.8,0.1-1.2,0.1S296.1,479.7,295.8,479.7z"/>
		<path d="M303.7,466.4c-0.1,0.1-2.5,1.7-4.5,5.7c-0.3-0.8-0.7-1.4-1.2-1.9v1.6h-2v-1.6c-0.5,0.4-0.9,1.1-1.2,1.9
			c-2-4-4.4-5.6-4.5-5.7c-0.2-0.2-0.5-0.1-0.7,0.1s-0.1,0.5,0.1,0.7c0,0,2.7,1.9,4.6,6.3c-0.2,0.8-0.3,1.6-0.3,2.3c0,2.5,1.3,3,3,3
			s3-0.5,3-3c0-0.7-0.1-1.5-0.3-2.3c1.9-4.4,4.6-6.2,4.6-6.3c0.2-0.2,0.3-0.5,0.1-0.7C304.3,466.3,304,466.2,303.7,466.4z"/>
	</g>
</g>
</svg>
